<svg width="24" height="24" viewBox="0 0 24 24" fill="none" xmlns="http://www.w3.org/2000/svg">
<path d="M7.03009 0.081271C5.75329 0.140216 4.88113 0.340299 4.11913 0.632439C3.33025 0.933268 2.66161 1.33672 1.99633 1.99028C1.33033 2.64431 0.921366 3.29974 0.616086 4.07237C0.320646 4.81986 0.120246 5.67374 0.0640856 6.92379C0.00792558 8.17642 -0.00479442 8.57588 0.00144558 11.7645C0.00768558 14.9527 0.0220856 15.3529 0.0830456 16.6057C0.144006 17.8549 0.347766 18.7078 0.646326 19.4539C0.954246 20.2258 1.36609 20.8798 2.03425 21.531C2.70217 22.1822 3.37249 22.5822 4.16257 22.8811C4.92577 23.17 5.79865 23.3665 7.07593 23.4213C8.35585 23.4764 8.76457 23.4887 12.0223 23.4825C15.2815 23.4764 15.6902 23.4624 16.9702 23.4029C18.247 23.3433 19.1182 23.1432 19.8811 22.8518C20.67 22.5498 21.3386 22.1475 22.0039 21.4937C22.6692 20.8401 23.0782 20.1842 23.3834 19.4111C23.6789 18.6643 23.88 17.8102 23.9354 16.5611C23.9914 15.308 24.0046 14.9076 23.9983 11.7197C23.9921 8.53126 23.9774 8.1318 23.9167 6.87964C23.856 5.62959 23.6515 4.77688 23.3534 4.03057C23.045 3.25865 22.6337 2.60509 21.9658 1.95341C21.2978 1.30244 20.6275 0.901565 19.8374 0.603554C19.0738 0.314467 18.2014 0.117436 16.9241 0.0634232C15.6444 0.00753147 15.2359 -0.00468018 11.977 0.00142565C8.71873 0.00753147 8.31001 0.0211522 7.03009 0.081271ZM7.17025 21.3079C6.00025 21.2582 5.36497 21.0679 4.94161 20.9085C4.38097 20.6962 3.98089 20.4416 3.55969 20.0328C3.13945 19.6223 2.87857 19.232 2.65969 18.6845C2.49529 18.2703 2.29729 17.6494 2.24257 16.5045C2.18305 15.2669 2.16937 14.8956 2.16361 11.7603C2.15737 8.6259 2.16913 8.25439 2.22433 7.01584C2.27449 5.87194 2.47009 5.24938 2.63257 4.83559C2.84953 4.28631 3.10873 3.89553 3.52753 3.48339C3.94705 3.07148 4.34593 2.81692 4.90585 2.60274C5.32897 2.44094 5.96329 2.24884 7.13281 2.19459C8.39833 2.13588 8.77753 2.12343 11.9808 2.11733C15.1848 2.11122 15.5645 2.12226 16.8302 2.17674C17.9993 2.22653 18.6355 2.41604 19.0582 2.5762C19.6193 2.7885 20.0194 3.04142 20.4401 3.45192C20.8608 3.86242 21.1217 4.25202 21.3406 4.80107C21.5057 5.21392 21.7022 5.83554 21.7574 6.97944C21.8177 8.21775 21.8314 8.58903 21.8371 11.7237C21.8434 14.859 21.8316 15.2303 21.7762 16.4681C21.7253 17.613 21.5311 18.2348 21.3679 18.6496C21.151 19.1977 20.8915 19.5891 20.4725 20.0013C20.0534 20.4118 19.6546 20.6678 19.0942 20.8819C18.672 21.0433 18.0367 21.2358 16.8679 21.2901C15.6024 21.3483 15.2232 21.3617 12.0187 21.3674C8.81545 21.3735 8.43601 21.3617 7.17025 21.3079ZM16.9526 5.46543C16.9541 6.24299 17.6004 6.87259 18.395 6.87118C19.1902 6.86977 19.8336 6.23782 19.8324 5.46003C19.8307 4.68248 19.1846 4.05241 18.3895 4.05381C17.5944 4.05522 16.9512 4.68788 16.9526 5.46543ZM5.83849 11.7535C5.84497 15.0835 8.60905 17.7771 12.0115 17.7706C15.4142 17.764 18.1685 15.0603 18.162 11.7302C18.1553 8.4014 15.391 5.70638 11.9878 5.71272C8.58529 5.7193 5.83177 8.42418 5.83849 11.7535ZM7.99993 11.7493C7.99609 9.58804 9.78385 7.83215 11.9921 7.82839C14.2008 7.82416 15.9955 9.57277 15.9998 11.7345C16.0042 13.8962 14.2164 15.6516 12.0072 15.6558C9.79873 15.66 8.00401 13.911 7.99993 11.7493Z" fill="white"/>
</svg>
