<svg width="24" height="24" viewBox="0 0 24 24" fill="none" xmlns="http://www.w3.org/2000/svg">
<path d="M22.1813 0H1.81869C0.814953 0 0 0.79743 0 1.77959V21.7044C0 22.6865 0.814953 23.4839 1.81869 23.4839H22.1813C23.185 23.4839 24 22.6865 24 21.7044V1.77959C24 0.79743 23.185 0 22.1813 0ZM7.1271 19.9742H3.60187V8.83208H7.1271V19.9742ZM20.4523 19.9742H16.9215V19.7309C16.9215 17.8983 16.9327 16.0638 16.914 14.2312C16.9084 13.6807 16.8748 13.1265 16.6729 12.5961C16.4486 12.0053 16.0187 11.6725 15.3925 11.6194C14.9701 11.5829 14.5346 11.5737 14.1252 11.7401C13.5458 11.9761 13.2168 12.426 13.086 13.0021C12.9963 13.399 12.9458 13.8142 12.9421 14.2202C12.9271 16.0455 12.9364 17.8727 12.9364 19.698V19.9815H9.4V8.8266H12.7832V10.3867C12.9607 10.1599 13.0879 9.98067 13.2299 9.81607C13.8355 9.10826 14.6056 8.69857 15.5477 8.58334C16.2168 8.50104 16.8748 8.54494 17.5271 8.67479C18.8636 8.93999 19.7308 9.77034 20.1122 11.0342C20.3626 11.8627 20.4243 12.7132 20.4262 13.5728C20.428 15.6669 20.4467 17.7593 20.4598 19.8534C20.4598 19.8882 20.4561 19.9248 20.4523 19.9742ZM3.31963 5.28206C3.31963 4.17919 4.23178 3.28665 5.35888 3.28665C6.48598 3.28665 7.39813 4.17919 7.39813 5.28206C7.39813 6.38493 6.48598 7.27746 5.35888 7.27746C4.23178 7.27746 3.31963 6.38493 3.31963 5.28206Z" fill="white"/>
</svg>
